<svg xmlns="http://www.w3.org/2000/svg" viewBox="0 0 1400 560" role="img" aria-labelledby="t d"><title id="t">Clinical product workflow</title><desc id="d">Conceptual physician-led medical AI workflow from MRI and PACS through AI analysis, lesion review, reporting, and physician decision.</desc><style>.bg{fill:#fcfcfb}.card{fill:#fff;stroke:#dce4f2;stroke-width:2}.a{fill:#1746e0}.soft{fill:#eef3ff}.txt{font-family:Arial,sans-serif;fill:#0b0f19}.muted{font-family:Arial,sans-serif;fill:#667085}.line{stroke:#8aa6e8;stroke-width:3;fill:none}.icon{stroke:#1746e0;stroke-width:3;fill:none;stroke-linecap:round;stroke-linejoin:round}</style><rect class="bg" width="1400" height="560" rx="30"/><text class="muted" x="80" y="70" font-size="20" letter-spacing="3">ROLE · PRODUCT MANAGEMENT   DOMAIN · MEDICAL AI   REVIEW · PHYSICIAN-LED</text><line x1="80" x2="1320" y1="98" y2="98" stroke="#dce4f2" stroke-width="2"/>
<g transform="translate(85 165)"><rect class="card" width="250" height="250" rx="24"/><circle class="soft" cx="125" cy="72" r="38"/><path class="icon" d="M104 57h42v30h-42zM111 65h28M111 74h20"/><text class="txt" x="125" y="145" text-anchor="middle" font-size="24" font-weight="700">MRI / PACS</text><text class="muted" x="125" y="178" text-anchor="middle" font-size="17">Clinical imaging data</text></g>
<path class="line" d="M345 290h90"/><path class="a" d="m435 290-18-10v20z"/>
<g transform="translate(445 165)"><rect class="card" width="250" height="250" rx="24"/><circle class="soft" cx="125" cy="72" r="38"/><circle class="icon" cx="125" cy="72" r="19"/><path class="icon" d="M125 42v12M125 90v12M95 72h12M143 72h12"/><text class="txt" x="125" y="145" text-anchor="middle" font-size="24" font-weight="700">AI Analysis</text><text class="muted" x="125" y="178" text-anchor="middle" font-size="17">Candidates + contours</text></g>
<path class="line" d="M705 290h90"/><path class="a" d="m795 290-18-10v20z"/>
<g transform="translate(805 165)"><rect class="card" width="250" height="250" rx="24"/><circle class="soft" cx="125" cy="72" r="38"/><path class="icon" d="M110 48h30v48h-30zM116 61h18M116 72h18M116 83h12"/><text class="txt" x="125" y="145" text-anchor="middle" font-size="24" font-weight="700">Review + Report</text><text class="muted" x="125" y="178" text-anchor="middle" font-size="17">Lesion-level evidence</text></g>
<path class="line" d="M1065 290h90"/><path class="a" d="m1155 290-18-10v20z"/>
<g transform="translate(1165 165)"><rect x="0" class="card" width="150" height="250" rx="24"/><circle class="soft" cx="75" cy="72" r="38"/><circle class="icon" cx="75" cy="64" r="13"/><path class="icon" d="M46 107c5-22 15-31 29-31s24 9 29 31M97 92l8 8 16-16"/><text class="txt" x="75" y="145" text-anchor="middle" font-size="21" font-weight="700">Physician</text><text class="muted" x="75" y="178" text-anchor="middle" font-size="16">Final decision</text></g><text class="muted" x="700" y="500" text-anchor="middle" font-size="17">Research → clinical integration → validation → regulatory readiness</text></svg>